# xmcd
#
# Track frame offsets: 
#        150
#        3217
#        16422
#        38855
#        66092
#        104312
#        111395
#        133900
#        146117
#        175242
#        195422
#
# Disc length: 2803 seconds
#
# Revision: 0
# Processed by: cddbd v1.4PL0 Copyright (c) Steve Scherf et al.
# Submitted via: ExactAudioCopy v0.90b4
#
DISCID=970af10b
DTITLE=The Kingsmen Quartet - Big and Live
DYEAR=1973
DGENRE=Gospel
TTITLE0=Introduction
TTITLE1=Ready To Leave
TTITLE2=Wait For Me At Jesus' Feet
TTITLE3=When I Wake Up For Sleep No More
TTITLE4=Love Lifted Me
TTITLE5=So High
TTITLE6=The Apple Tree Song
TTITLE7=What A Happy Time
TTITLE8=The Glory Road
TTITLE9=Love Will Roll The Clouds Away
TTITLE10=I'd Rather Be An Old Time Christian
EXTD=
EXTT0=
EXTT1=
EXTT2=
EXTT3=
EXTT4=
EXTT5=
EXTT6=
EXTT7=
EXTT8=
EXTT9=
EXTT10=
PLAYORDER=
